<?xml version="1.0" encoding="UTF-8"?> <svg xmlns="http://www.w3.org/2000/svg" xmlns:xlink="http://www.w3.org/1999/xlink" width="1280" height="720"><defs><clipPath id="clip0"><rect x="0" y="0" width="1280" height="720"></rect></clipPath><clipPath id="clip1"><rect x="-5" y="33" width="1114" height="669"></rect></clipPath><clipPath id="clip2"><rect x="-5" y="33" width="1114" height="669"></rect></clipPath><clipPath id="clip3"><rect x="-5" y="33" width="1114" height="669"></rect></clipPath><clipPath id="clip4"><rect x="130" y="53" width="927" height="600"></rect></clipPath><clipPath id="clip5"><rect x="130" y="53" width="927" height="600"></rect></clipPath><clipPath id="clip6"><rect x="130" y="53" width="927" height="600"></rect></clipPath><clipPath id="clip7"><rect x="130" y="53" width="927" height="600"></rect></clipPath><clipPath id="clip8"><rect x="-5" y="33" width="1114" height="669"></rect></clipPath><clipPath id="clip9"><rect x="-5" y="33" width="1114" height="669"></rect></clipPath><clipPath id="clip10"><rect x="-5" y="33" width="1114" height="669"></rect></clipPath><clipPath id="clip11"><rect x="-5" y="33" width="1114" height="669"></rect></clipPath><clipPath id="clip12"><rect x="-5" y="33" width="1114" height="669"></rect></clipPath><clipPath id="clip13"><rect x="-5" y="33" width="1114" height="669"></rect></clipPath><clipPath id="clip14"><rect x="-5" y="33" width="1114" height="669"></rect></clipPath><clipPath id="clip15"><rect x="-5" y="33" width="1114" height="669"></rect></clipPath><clipPath id="clip16"><rect x="-5" y="33" width="1114" height="669"></rect></clipPath><clipPath id="clip17"><rect x="-5" y="33" width="1114" height="669"></rect></clipPath><clipPath id="clip18"><rect x="-5" y="33" width="1114" height="669"></rect></clipPath><clipPath id="clip19"><rect x="-5" y="33" width="1114" height="669"></rect></clipPath><clipPath id="clip20"><rect x="-5" y="33" width="1114" height="669"></rect></clipPath><clipPath id="clip21"><rect x="-5" y="33" width="1114" height="669"></rect></clipPath><clipPath id="clip22"><rect x="-5" y="33" width="1114" height="669"></rect></clipPath><clipPath id="clip23"><rect x="-5" y="33" width="1114" height="669"></rect></clipPath><clipPath id="clip24"><rect x="-5" y="33" width="1114" height="669"></rect></clipPath></defs><g clip-path="url(#clip0)"><rect x="0" y="0" width="1280" height="720" fill="#FFFFFF"></rect><text font-family="Arial,Arial_MSFontService,sans-serif" font-weight="400" font-size="20" transform="translate(1061.44 223)">Staff: <tspan font-size="20" x="51.64" y="0">lateral </tspan><tspan font-size="20" x="111.807" y="0">flow</tspan><tspan font-size="20" x="0.141479" y="388">Staff: PCR</tspan><tspan font-size="20" x="0.141479" y="362">Residents: </tspan><tspan font-size="20" x="100.308" y="362">PCR</tspan><tspan font-size="20" x="0.141602" y="411">Residents</tspan><tspan font-size="20" x="89.3083" y="411">: lateral </tspan><tspan font-size="20" x="160.475" y="411">flow</tspan></text><g clip-path="url(#clip1)"><path d="M130.5 592.5 1056.5 592.5M130.5 532.5 1056.5 532.5M130.5 472.5 1056.5 472.5M130.5 412.5 1056.5 412.5M130.5 352.5 1056.5 352.5M130.5 293.5 1056.5 293.5M130.5 233.5 1056.5 233.5M130.5 173.5 1056.5 173.5M130.5 113.5 1056.5 113.5M130.5 53.5001 1056.5 53.5001" stroke="#D9D9D9" stroke-linejoin="round" stroke-miterlimit="10" fill="none"></path></g><g clip-path="url(#clip2)"><path d="M130.5 652.5 1056.5 652.5" stroke="#D9D9D9" stroke-linejoin="round" stroke-miterlimit="10" fill="none" fill-rule="evenodd"></path></g><g clip-path="url(#clip3)"><path d="M130.5 652.5 130.5 659.5M171.5 652.5 171.5 659.5M211.5 652.5 211.5 659.5M251.5 652.5 251.5 659.5M291.5 652.5 291.5 659.5M332.5 652.5 332.5 659.5M372.5 652.5 372.5 659.5M412.5 652.5 412.5 659.5M452.5 652.5 452.5 659.5M493.5 652.5 493.5 659.5M533.5 652.5 533.5 659.5M573.5 652.5 573.5 659.5M613.5 652.5 613.5 659.5M654.5 652.5 654.5 659.5M694.5 652.5 694.5 659.5M734.5 652.5 734.5 659.5M774.5 652.5 774.5 659.5M815.5 652.5 815.5 659.5M855.5 652.5 855.5 659.5M895.5 652.5 895.5 659.5M935.5 652.5 935.5 659.5M976.5 652.5 976.5 659.5M1016.5 652.5 1016.5 659.5M1056.5 652.5 1056.5 659.5" stroke="#D9D9D9" stroke-linejoin="round" stroke-miterlimit="10" fill="none"></path></g><g clip-path="url(#clip4)"><path d="M131 592 171 595 211 592 252 589 292 594 332 597 372 597 413 590 453 590 493 591 533 568 574 565 614 510 654 532 694 553 735 564 775 570 815 579 855 590 896 600 936 600 976 599 1016 598 1057 588" stroke="#801650" stroke-width="4" stroke-linecap="round" stroke-linejoin="round" stroke-miterlimit="10" fill="none"></path></g><g clip-path="url(#clip5)"><path d="M131 644 171 643 211 642 252 643 292 644 332 644 372 644 413 644 453 644 493 643 533 635 574 622 614 606 654 612 694 618 735 623 775 625 815 629 855 632 896 634 936 636 976 636 1016 633 1057 630" stroke="#28A197" stroke-width="4" stroke-linecap="round" stroke-linejoin="round" stroke-miterlimit="10" fill="none"></path></g><g clip-path="url(#clip6)"><path d="M131 427 171 428 211 432 252 436 292 430 332 430 372 432 413 431 453 428 493 422 533 396 574 434 614 368 654 406 694 430 735 444 775 463 815 486 855 524 896 591 936 611 976 614 1016 613 1057 607" stroke="#F46A25" stroke-width="4" stroke-linecap="round" stroke-linejoin="round" stroke-miterlimit="10" fill="none"></path></g><g clip-path="url(#clip7)"><path d="M131 395 171 395 211 397 252 400 292 398 332 399 372 401 413 399 453 394 493 370 533 264 574 230 614 131 654 111 694 146 735 180 775 205 815 214 855 227 896 214 936 229 976 227 1016 222 1057 219" stroke="#12436D" stroke-width="4" stroke-linecap="round" stroke-linejoin="round" stroke-miterlimit="10" fill="none"></path></g><g clip-path="url(#clip8)"><text fill="#595959" font-family="Arial,Arial_MSFontService,sans-serif" font-weight="400" font-size="24" transform="translate(96.7515 660)">0</text></g><g clip-path="url(#clip9)"><text fill="#595959" font-family="Arial,Arial_MSFontService,sans-serif" font-weight="400" font-size="24" transform="translate(23.3515 600)">100,000</text></g><g clip-path="url(#clip10)"><text fill="#595959" font-family="Arial,Arial_MSFontService,sans-serif" font-weight="400" font-size="24" transform="translate(23.3515 541)">200,000</text></g><g clip-path="url(#clip11)"><text fill="#595959" font-family="Arial,Arial_MSFontService,sans-serif" font-weight="400" font-size="24" transform="translate(23.3515 481)">300,000</text></g><g clip-path="url(#clip12)"><text fill="#595959" font-family="Arial,Arial_MSFontService,sans-serif" font-weight="400" font-size="24" transform="translate(23.3515 421)">400,000</text></g><g clip-path="url(#clip13)"><text fill="#595959" font-family="Arial,Arial_MSFontService,sans-serif" font-weight="400" font-size="24" transform="translate(23.3515 361)">500,000</text></g><g clip-path="url(#clip14)"><text fill="#595959" font-family="Arial,Arial_MSFontService,sans-serif" font-weight="400" font-size="24" transform="translate(23.3515 301)">600,000</text></g><g clip-path="url(#clip15)"><text fill="#595959" font-family="Arial,Arial_MSFontService,sans-serif" font-weight="400" font-size="24" transform="translate(23.3515 241)">700,000</text></g><g clip-path="url(#clip16)"><text fill="#595959" font-family="Arial,Arial_MSFontService,sans-serif" font-weight="400" font-size="24" transform="translate(23.3515 181)">800,000</text></g><g clip-path="url(#clip17)"><text fill="#595959" font-family="Arial,Arial_MSFontService,sans-serif" font-weight="400" font-size="24" transform="translate(23.3515 121)">900,000</text></g><g clip-path="url(#clip18)"><text fill="#595959" font-family="Arial,Arial_MSFontService,sans-serif" font-weight="400" font-size="24" transform="translate(3.33816 62)">1,000,000</text></g><g clip-path="url(#clip19)"><text fill="#595959" font-family="Arial,Arial_MSFontService,sans-serif" font-weight="400" font-size="24" transform="translate(175.249 689)">Oct-21</text></g><g clip-path="url(#clip20)"><text fill="#595959" font-family="Arial,Arial_MSFontService,sans-serif" font-weight="400" font-size="24" transform="translate(333.601 689)">Nov-21</text></g><g clip-path="url(#clip21)"><text fill="#595959" font-family="Arial,Arial_MSFontService,sans-serif" font-weight="400" font-size="24" transform="translate(494.625 689)">Dec-21</text></g><g clip-path="url(#clip22)"><text fill="#595959" font-family="Arial,Arial_MSFontService,sans-serif" font-weight="400" font-size="24" transform="translate(697.9 689)">Jan-22</text></g><g clip-path="url(#clip23)"><text fill="#595959" font-family="Arial,Arial_MSFontService,sans-serif" font-weight="400" font-size="24" transform="translate(857.594 689)">Feb-22</text></g><g clip-path="url(#clip24)"><text fill="#595959" font-family="Arial,Arial_MSFontService,sans-serif" font-weight="400" font-size="24" transform="translate(1018.63 689)">Mar-22</text></g><path d="M0 0 0.000104987 594.358" stroke="#000000" stroke-width="2" stroke-miterlimit="8" stroke-dasharray="8 6" fill="none" fill-rule="evenodd" transform="matrix(1 0 0 -1 573 650.358)"></path><rect x="559" y="18" width="29" height="34" fill="#FFFFFF"></rect><text font-family="Arial,Arial_MSFontService,sans-serif" font-weight="700" font-size="20" transform="translate(568.325 41)">A</text><rect x="716" y="19" width="41" height="34" fill="#FFFFFF"></rect><text font-family="Arial,Arial_MSFontService,sans-serif" font-weight="700" font-size="20" transform="translate(726.098 43)">B</text><path d="M0 0 0.000104987 593.451" stroke="#000000" stroke-width="2" stroke-miterlimit="8" stroke-dasharray="8 6" fill="none" fill-rule="evenodd" transform="matrix(1 0 0 -1 934 648.451)"></path><rect x="917" y="19" width="41" height="34" fill="#FFFFFF"></rect><text font-family="Arial,Arial_MSFontService,sans-serif" font-weight="700" font-size="20" transform="translate(926.738 43)">C</text><path d="M0 0 0.000104987 594.358" stroke="#000000" stroke-width="2" stroke-miterlimit="8" stroke-dasharray="8 6" fill="none" fill-rule="evenodd" transform="matrix(1 0 0 -1 733 649.358)"></path></g></svg> 